# AST/ASF file generated using VICON BodyLanguage
# -----------------------------------------------
:version 1.10
:name VICON
:units
  mass 1.0
  length 0.45
  angle deg
:documentation
   .ast/.asf automatically generated from VICON data using
   VICON BodyBuilder and BodyLanguage model FoxedUp or BRILLIANT.MOD
:root
   order TX TY TZ RX RY RZ
   axis XYZ
   position 0 0 0  
   orientation 0 -0 0 
:bonedata
  begin
     id 1 
     name lhipjoint
     direction 0.432694 -0.693742 0.575759 
     length 2.19277 
     axis 0 -0 0  XYZ
  end
  begin
     id 2 
     name lfemur
     direction 0.34202 -0.939693 0  
     length 6.69022  
     axis 0 -0 20  XYZ
    dof rx ry rz
    limits (-160.0 20.0)
           (-70.0 70.0)
           (-60.0 70.0)
  end
  begin
     id 3 
     name ltibia
     direction 0.34202 -0.939693 0   
     length 6.50337   
     axis 0 -0 20   XYZ
    dof rx
    limits (-10.0 170.0)
  end
  begin
     id 4 
     name lfoot
     direction 0.158999 -0.435969 0.885805   
     length 2.70564   
     axis -90 -1.13533e-015 20   XYZ
    dof rx rz
    limits (-45.0 90.0)
           (-70.0 20.0)
  end
  begin
     id 5 
     name ltoes
     direction -0.00592919 0.00964381 0.999936   
     length 1.29929   
     axis -90 -1.13533e-015 20   XYZ
    dof rx
    limits (-90.0 20.0)
  end
  begin
     id 6 
     name rhipjoint
     direction -0.414359 -0.700339 0.581234   
     length 2.17212  
     axis 0 -0 0  XYZ 
  end
  begin
     id 7 
     name rfemur
     direction -0.34202 -0.939693 0   
     length 7.17659   
     axis 0 -0 -20   XYZ
    dof rx ry rz
    limits (-160.0 20.0)
           (-70.0 70.0)
           (-70.0 60.0)
  end
  begin
     id 8 
     name rtibia
     direction -0.34202 -0.939693 0   
     length 6.36669   
     axis 0 -0 -20   XYZ
    dof rx
    limits (-10.0 170.0)
 end
 begin
     id 9 
     name rfoot
     direction -0.137064 -0.37658 0.916188   
     length 2.22351  
     axis -90 1.13533e-015 -20   XYZ
    dof rx rz
    limits (-45.0 90.0)
           (-20.0 70.0)
  end
  begin
     id 10 
     name rtoes
     direction -0.000784077 -0.00289101 0.999996   
     length 1.09522   
     axis -90 1.13533e-015 -20   XYZ
    dof rx
    limits (-90.0 20.0)
  end
  begin
     id 11 
     name lowerback
     direction -0.0176242 0.984912 -0.172157   
     length 1.65301   
     axis 0 -0 0   XYZ
    dof rx ry rz
    limits (-20.0 45.0)
           (-30.0 30.0)
           (-30.0 30.0)
  end
  begin
     id 12 
     name upperback
     direction -0.00218128 0.998776 -0.0494072   
     length 1.67776   
     axis 0 -0 0   XYZ
    dof rx ry rz
    limits (-20.0 45.0)
           (-30.0 30.0)
           (-30.0 30.0)
  end
  begin
     id 13 
     name thorax
     direction 0.00544186 0.999658 0.0255711   
     length 1.72293   
     axis 0 -0 0   XYZ
    dof rx ry rz
    limits (-20.0 45.0)
           (-30.0 30.0)
           (-30.0 30.0)
  end
  begin
     id 14 
     name lowerneck
     direction -0.105325 0.983841 0.144785   
     length 2.14226   
     axis 0 -0 0   XYZ
    dof rx ry rz
    limits (-20.0 45.0)
           (-30.0 30.0)
           (-30.0 30.0)
  end
  begin
     id 15 
     name upperneck
     direction 0.0547957 0.988053 -0.144041   
     length 2.17508   
     axis 0 -0 0   XYZ
    dof rx ry rz
    limits (-20.0 45.0)
           (-30.0 30.0)
           (-30.0 30.0)
  end
  begin
     id 16
     name head
     direction 0.0247488 0.997534 -0.0656813  
     length 2.20048  
     axis 0 -0 0   XYZ
    dof rx ry rz
    limits (-20.0 45.0)
           (-30.0 30.0)
           (-30.0 30.0)
  end
  begin
     id 17 
     name lclavicle
     direction 0.820559 0.567247 -0.0701026  
     length 4.09615  
     axis 0 -0 0   XYZ
    dof ry rz
    limits (-20.0 10.0)
           (0.0 20.0)
  end
  begin
     id 18 
     name lhumerus
     direction 0.999977 -0.0067566 -9.96392e-005   
     length 4.59333   
     axis -180 -30 -90   XYZ
    dof rx ry rz
    limits (-60.0 90.0)
           (-90.0 90.0)
           (-90.0 90.0)
  end
  begin
     id 19
     name lradius
     direction 1 -4.48982e-011 -2.53425e-027   
     length 2.81151   
     axis -180 -30 -90   XYZ
    dof rx
    limits (-10.0 170.0)
  end
  begin
     id 20
     name lwrist
     direction 1 -4.48939e-011 -7.39254e-028   
     length 1.40576   
     axis 2.56395e-016 90 90   XYZ
    dof ry
    limits (-180.0 0.0)
 end
  begin
     id 21 
     name lhand
     direction 1 -4.48939e-011 -1.47851e-027   
     length 0.895651   
     axis 9.43423e-016 90 90   XYZ
    dof rx rz
    limits (-90.0 90.0)
           (-45.0 45.0)
  end
  begin
     id 22 
     name lfingers
     direction 1 -4.48978e-011 -2.95702e-027   
     length 0.722097   
     axis 1.88685e-015 90 90   XYZ
    dof rx
    limits (0.0 90.0)
  end
  begin
     id 23
     name lthumb
     direction 0.707107 -6.34931e-011 0.707107   
     length 1.03679   
     axis -90 45 -9.86935e-015   XYZ
    dof rx rz
    limits (-45.0 45.0)
           (-45.0 45.0)
  end
  begin
     id 24 
     name rclavicle
     direction -0.831414 0.553102 -0.0531864   
     length 4.24872  
     axis 0 -0 0   XYZ 
    dof ry rz
    limits (-10.0 20.0)
           (-20.0 0.0)
  end
  begin
     id 25 
     name rhumerus
     direction -0.999916 -0.000939607 0.0129331  
     length 4.74834   
     axis -180 30 90   XYZ
    dof rx ry rz
    limits (-90.0 60.0)
           (-90.0 90.0)
           (-90.0 90.0)
  end
  begin
     id 26 
     name rradius
     direction -1 -4.48956e-011 -1.31752e-027   
     length 2.79907   
     axis -180 30 90   XYZ
    dof rx
    limits (-10.0 170.0)
  end
  begin
     id 27 
     name rwrist
     direction -1 -4.4897e-011 -7.39254e-028   
     length 1.39954   
     axis 2.56395e-016 -90 -90   XYZ
    dof ry
    limits (-180.0 0.0)
  end
  begin
     id 28
     name rhand
     direction -0.999997 -0.00250697 0.000800838   
     length 0.953304   
     axis 9.43423e-016 -90 -90   XYZ
    dof rx rz
    limits (-90.0 90.0)
           (-45.0 45.0)
  end
  begin
     id 29
     name rfingers
     direction -1 -4.48954e-011 -2.95702e-027   
     length 0.763342   
     axis 1.88685e-015 -90 -90   XYZ
    dof rx
    limits (0.0 90.0)
  end
  begin
     id 30
     name rthumb
     direction -0.709701 -0.00217037 0.7045   
     length 1.10115   
     axis -90 -45 9.86935e-015   XYZ
    dof rx rz
    limits (-45.0 45.0)
           (-45.0 45.0)
  end
:hierarchy
  begin
    root lhipjoint rhipjoint lowerback
    lhipjoint lfemur
    lfemur ltibia
    ltibia lfoot
    lfoot ltoes
    rhipjoint rfemur
    rfemur rtibia
    rtibia rfoot
    rfoot rtoes
    lowerback upperback
    upperback thorax
    thorax lowerneck lclavicle rclavicle
    lowerneck upperneck
    upperneck head
    lclavicle lhumerus
    lhumerus lradius
    lradius lwrist
    lwrist lhand lthumb
    lhand lfingers
    rclavicle rhumerus
    rhumerus rradius
    rradius rwrist
    rwrist rhand rthumb
    rhand rfingers
  end

#!OML:ASF G:\ViconDB\ViconDB\414\test\team2\shane.ASF
:FULLY-SPECIFIED
:DEGREES
16
root 5.60219 16.0065 -41.2286 2.54793 -8.44473 -3.26158
lowerback 12.7794 3.71533 7.59394
upperback 3.38218 5.92012 1.44447
thorax -2.95146 2.90506 -3.59713
lowerneck -16.8398 -5.19987 -7.54764
upperneck 18.9588 -6.34502 5.22466
head 9.15035 -2.95477 2.2093
rclavicle 5.92378e-014 1.74931e-014
rhumerus -18.9977 13.2867 -102.886
rradius 58.1845
rwrist 30.1127
rhand -42.8873 -22.2232
rfingers 7.12502
rthumb -15.7499 -51.6023
lclavicle 5.92378e-014 1.74931e-014
lhumerus -44.1604 -26.5012 92.8535
lradius 23.611
lwrist -12.8102
lhand -35.3184 10.4894
lfingers 7.12502
lthumb -8.45201 40.3003
rfemur 23.5834 -17.0091 15.4761
rtibia 1.37175
rfoot -26.642 2.33382
rtoes -11.8353
lfemur -35.7567 16.3515 -13.5945
ltibia 56.3349
lfoot -34.9789 -10.0768
ltoes -6.78317
17
root 5.58432 15.9863 -41.0707 2.83503 -8.67278 -3.16595
lowerback 12.803 3.93865 7.69439
upperback 3.45364 6.21907 1.32637
thorax -2.82999 3.05992 -3.80949
lowerneck -16.5571 -5.2735 -7.45393
upperneck 18.6443 -6.45483 5.12007
head 8.99143 -3.01536 2.14794
rclavicle -5.54609e-014 2.46493e-014
rhumerus -17.9844 13.9816 -102.971
rradius 61.3193
rwrist 30.4853
rhand -43.0278 -23.3513
rfingers 7.12502
rthumb -15.8851 -52.7197
lclavicle -5.54609e-014 2.46493e-014
lhumerus -44.736 -25.9052 91.4059
lradius 22.2547
lwrist -13.7545
lhand -36.175 8.14287
lfingers 7.12502
lthumb -9.27871 37.9187
rfemur 24.4309 -16.5504 15.3713
rtibia 6.67916e-014
rfoot -26.1388 1.99433
rtoes -12.4797
lfemur -37.0776 16.1923 -14.1272
ltibia 55.5486
lfoot -35.1622 -10.5663
ltoes -7.02864
18
root 5.56728 15.9607 -40.9141 3.06015 -8.69791 -3.08319
lowerback 13.0017 4.10298 7.60811
upperback 3.48621 6.44097 1.3607
thorax -2.89164 3.16712 -3.77017
lowerneck -16.291 -5.333 -7.50133
upperneck 18.4288 -6.50118 4.96941
head 8.86928 -3.06064 2.1029
rclavicle 1.2921e-013 3.18055e-014
rhumerus -17.2552 15.1939 -102.963
rradius 64.8542
rwrist 29.024
rhand -43.7228 -23.9626
rfingers 7.12502
rthumb -16.5544 -53.2765
lclavicle 1.2921e-013 3.18055e-014
lhumerus -46.1706 -26.1236 90.9617
lradius 21.7617
lwrist -13.4102
lhand -36.2065 8.48205
lfingers 7.12502
lthumb -9.30901 38.2565
rfemur 24.8006 -16.2722 15.2149
rtibia -3.18055e-015
rfoot -26.4054 1.85121
rtoes -12.7204
lfemur -38.3513 15.9429 -14.6376
ltibia 54.7789
lfoot -35.3123 -11.2375
ltoes -7.44916
19
root 5.55445 15.9349 -40.7462 3.27202 -8.76772 -3.04776
lowerback 13.0199 4.26838 7.81587
upperback 3.62208 6.67226 1.2267
thorax -2.68942 3.29415 -4.04383
lowerneck -16.2143 -5.43703 -7.39143
upperneck 18.2928 -6.67127 4.96465
head 8.81618 -3.13413 2.06229
rclavicle -7.5737e-014 -3.18055e-014
rhumerus -16.1421 16.1841 -102.845
rradius 67.9959
rwrist 28.6809
rhand -44.055 -24.8331
rfingers 7.12502
rthumb -16.8741 -54.12
lclavicle -7.5737e-014 -3.18055e-014
lhumerus -47.0425 -26.3036 89.9378
lradius 21.0136
lwrist -12.9665
lhand -36.185 8.58128
lfingers 7.12502
lthumb -9.28835 38.3567
rfemur 25.1705 -15.9458 15.0991
rtibia 6.36111e-015
rfoot -26.6278 1.52436
rtoes -13.1284
lfemur -39.5387 15.9026 -15.1912
ltibia 54.1724
lfoot -35.5496 -11.7532
ltoes -7.714
20
root 5.53734 15.8985 -40.5785 3.47998 -8.89026 -2.95446
lowerback 13.1601 4.48873 7.83312
upperback 3.70763 6.96432 1.05139
thorax -2.61424 3.44512 -4.27823
lowerneck -16.0859 -5.55595 -6.99843
upperneck 18.134 -6.89466 4.77003
head 8.73137 -3.2339 1.9059
rclavicle 6.40087e-014 -3.33958e-014
rhumerus -14.9355 16.427 -102.778
rradius 71.1887
rwrist 28.8122
rhand -44.5804 -25.0743
rfingers 7.12502
rthumb -17.3799 -54.3173
lclavicle 6.40087e-014 -3.33958e-014
lhumerus -48.3806 -27.0972 89.3338
lradius 20.7493
lwrist -12.0683
lhand -36.1278 9.03689
lfingers 7.12502
lthumb -9.23314 38.8147
rfemur 25.5975 -15.5577 14.8937
rtibia -1.59028e-014
rfoot -26.8433 1.48387
rtoes -13.2461
lfemur -40.662 15.5252 -15.5473
ltibia 53.5831
lfoot -35.3741 -12.4363
ltoes -7.41005
21
root 5.52328 15.8548 -40.4036 3.59462 -9.01054 -2.91359
lowerback 13.2861 4.63594 7.80965
upperback 3.85161 7.15757 1.08763
thorax -2.51349 3.54827 -4.25398
lowerneck -15.7807 -5.59845 -7.15001
upperneck 17.8493 -6.91843 4.74456
head 8.58644 -3.26362 1.92599
rclavicle 2.22639e-014 -3.97569e-015
rhumerus -13.9574 17.1212 -102.491
rradius 74.6129
rwrist 28.7553
rhand -44.7098 -25.6029
rfingers 7.12502
rthumb -17.5044 -54.8349
lclavicle 2.22639e-014 -3.97569e-015
lhumerus -49.5225 -26.9399 88.4845
lradius 20.2615
lwrist -12.2895
lhand -35.9595 9.31846
lfingers 7.12502
lthumb -9.07073 39.1034
rfemur 26.0956 -15.1593 14.7119
rtibia 7.95139e-014
rfoot -27.0688 1.26497
rtoes -13.6437
lfemur -41.6686 15.5898 -16.0336
ltibia 53.2346
lfoot -35.8201 -12.4192
ltoes -8.06942
22
root 5.50579 15.8117 -40.2319 3.90529 -9.02826 -2.86509
lowerback 13.2442 4.80363 7.72385
upperback 3.963 7.35431 1.04632
thorax -2.35377 3.65596 -4.26102
lowerneck -15.5507 -5.64088 -7.30169
upperneck 17.614 -6.98942 4.95239
head 8.48402 -3.29026 2.017
rclavicle -3.99557e-014 0
rhumerus -12.5775 17.5551 -102.166
rradius 77.7346
rwrist 28.6603
rhand -45.0958 -25.9606
rfingers 7.12502
rthumb -17.8758 -55.1591
lclavicle -3.99557e-014 0
lhumerus -50.8969 -27.4995 88.0136
lradius 20.0541
lwrist -12.2704
lhand -35.9849 9.44761
lfingers 7.12502
lthumb -9.09526 39.2315
rfemur 26.4665 -14.8937 14.6163
rtibia 5.08889e-014
rfoot -27.2684 0.85949
rtoes -14.7998
lfemur -42.9286 15.6993 -16.6194
ltibia 52.9732
lfoot -35.7357 -12.5661
ltoes -8.02788
23
root 5.48553 15.7657 -40.0563 4.16033 -9.38323 -3.00887
lowerback 13.4511 5.05985 7.76386
upperback 4.01089 7.70872 1.00616
thorax -2.35903 3.832 -4.38405
lowerneck -15.1826 -5.71537 -7.28434
upperneck 17.3057 -7.11935 5.00293
head 8.32433 -3.35214 2.02359
rclavicle 2.32578e-014 -1.51076e-014
rhumerus -11.3013 17.9518 -101.963
rradius 81.0765
rwrist 28.5714
rhand -45.1327 -26.6312
rfingers 7.12502
rthumb -17.9113 -55.8264
lclavicle 2.32578e-014 -1.51076e-014
lhumerus -52.4004 -28.1616 87.5877
lradius 20.1015
lwrist -11.3371
lhand -35.9632 9.48497
lfingers 7.12502
lthumb -9.07427 39.2698
rfemur 26.8364 -14.2791 14.6894
rtibia 4.77083e-014
rfoot -27.4468 0.685376
rtoes -15.3491
lfemur -43.9881 16.0254 -16.847
ltibia 52.9553
lfoot -35.3838 -12.6887
ltoes -7.61929
24
root 5.47903 15.7037 -39.8717 4.32546 -9.23332 -3.07086
lowerback 13.5785 5.13616 8.03089
upperback 4.12163 7.84318 0.887168
thorax -2.23815 3.90878 -4.67267
lowerneck -14.8226 -5.75461 -7.01056
upperneck 16.9181 -7.22384 4.89631
head 8.12229 -3.40139 1.94053
rclavicle -1.28415e-013 4.05521e-014
rhumerus -10.0217 18.3456 -101.601
rradius 84.2866
rwrist 28.2212
rhand -45.2979 -27.0469
rfingers 7.12502
rthumb -18.0703 -56.2275
lclavicle -1.28415e-013 4.05521e-014
lhumerus -54.1498 -29.184 87.4664
lradius 20.3732
lwrist -10.9244
lhand -35.8059 9.89319
lfingers 7.12502
lthumb -8.92253 39.6845
rfemur 27.4094 -14.1305 14.6051
rtibia 1.24042e-013
rfoot -27.5968 0.39984
rtoes -16.2499
lfemur -45.0681 16.0417 -17.2487
ltibia 53.11
lfoot -35.3915 -12.4066
ltoes -7.85221
25
root 5.46384 15.6462 -39.6884 4.52773 -9.34633 -2.9942
lowerback 13.7204 5.27574 7.91965
upperback 4.25184 8.01148 0.779896
thorax -2.1537 3.99992 -4.74945
lowerneck -14.5297 -5.78234 -7.00797
upperneck 16.5381 -7.28749 5.00575
head 7.9521 -3.42719 1.9771
rclavicle 5.64548e-014 -1.03368e-014
rhumerus -8.43991 18.8435 -101.146
rradius 87.4262
rwrist 27.8715
rhand -45.2097 -27.1718
rfingers 7.12502
rthumb -17.9854 -56.3602
lclavicle 5.64548e-014 -1.03368e-014
lhumerus -56.07 -30.1254 87.5135
lradius 20.8508
lwrist -10.3186
lhand -35.9943 9.5923
lfingers 7.12502
lthumb -9.10432 39.3758
rfemur 27.9068 -13.7376 14.3927
rtibia -4.13472e-014
rfoot -27.7078 0.114225
rtoes -17.3034
lfemur -46.073 16.2626 -17.8391
ltibia 53.4468
lfoot -35.2116 -11.9612
ltoes -8.0845
26
root 5.45352 15.5833 -39.4939 4.68173 -9.60494 -2.98017
lowerback 13.82 5.47904 7.91571
upperback 4.42201 8.27084 0.658027
thorax -1.97323 4.1427 -4.90083
lowerneck -14.2549 -5.83051 -6.76383
upperneck 16.2056 -7.37675 4.82704
head 7.78232 -3.47717 1.87636
rclavicle -5.20816e-014 1.43125e-014
rhumerus -6.67526 19.2378 -100.663
rradius 90.3881
rwrist 27.5342
rhand -45.1964 -27.4779
rfingers 7.12502
rthumb -17.9727 -56.6675
lclavicle -5.20816e-014 1.43125e-014
lhumerus -57.9553 -31.0725 87.545
lradius 21.5689
lwrist -9.4744
lhand -35.8678 9.17986
lfingers 7.12502
lthumb -8.98226 38.9686
rfemur 28.4416 -13.1848 14.2094
rtibia 2.8625e-014
rfoot -27.8334 -0.248518
rtoes -18.569
lfemur -46.9492 16.6381 -18.3121
ltibia 53.9897
lfoot -35.089 -11.6224
ltoes -8.27128
